<svg width="1920" height="1080" viewBox="0 0 1920 1080" fill="none" xmlns="http://www.w3.org/2000/svg">
<rect width="1920" height="1080" fill="#8C52FF"/>
<path d="M960 286C819.722 286 706 399.714 706 540C706 680.278 819.722 794 960 794C1100.29 794 1214 680.278 1214 540C1214 399.714 1100.29 286 960 286Z" fill="#8C52FF"/>
<path d="M1124.73 454.01C1114.33 463.197 1102.98 473.348 1092.59 482.535C1092.59 482.543 1092.59 482.551 1092.6 482.559C1092.71 482.706 1092.81 482.861 1092.9 483.041C1093 483.221 1093.08 483.392 1093.14 483.572C1093.92 485.279 1094.37 487.116 1094.5 488.978C1105.77 479.015 1118.01 468.089 1129.28 458.118C1127.5 457.065 1125.94 455.668 1124.73 454.01Z" fill="white"/>
<path d="M1039.73 454.068C1039.57 456.338 1038.87 458.518 1037.75 460.445C1047.2 468.799 1057.6 478.109 1067.06 486.463C1067.55 484.389 1068.47 482.429 1069.81 480.763C1060.1 472.18 1049.44 462.642 1039.73 454.068Z" fill="white"/>
<path d="M976.863 486.936C974.487 485.132 971.514 484.021 968.133 483.833C959.91 483.392 953.973 490.848 953.565 498.443C953.116 506.682 960.555 512.635 968.133 513.044C976.022 513.468 981.795 506.617 982.612 499.349C982.677 499.071 982.718 498.777 982.702 498.443C982.718 498.108 982.677 497.822 982.612 497.544C982.383 495.356 981.779 493.339 980.824 491.567C991.889 481.792 1003.43 471.535 1014.48 461.76C1013.19 460.078 1012.26 458.102 1011.86 455.946C1000.36 466.113 988.369 476.77 976.863 486.936ZM959.657 498.443C959.069 487.484 976.014 487.541 976.602 498.443C976.014 509.385 960.245 509.385 959.657 498.443Z" fill="white"/>
<path d="M1040.14 451.789C1040.13 451.675 1040.11 451.561 1040.09 451.454C1040.08 451.299 1040.06 451.136 1040.03 450.973C1038.65 443.631 1031.86 438.454 1024.43 439.075C1016.87 439.712 1011.37 446.171 1011.16 453.61C1011.14 454.574 1011.22 455.513 1011.38 456.428C1011.79 458.583 1012.71 460.552 1014.01 462.242C1016.88 465.982 1021.56 468.334 1026.42 468.187C1031.49 468.04 1035.83 465.067 1038.23 460.927C1039.35 459 1040.05 456.82 1040.21 454.549C1040.27 453.635 1040.26 452.712 1040.14 451.789ZM1026.42 462.079C1021.38 462.528 1017.51 458.453 1017.26 453.61C1017.04 449.241 1020.63 445.959 1024.61 445.167C1029.27 444.244 1033.14 448.057 1034.08 452.271C1034.48 457.114 1031.56 461.613 1026.42 462.079Z" fill="white"/>
<path d="M1093.38 482.559C1093.29 482.388 1093.18 482.224 1093.08 482.077C1093.08 482.069 1093.07 482.061 1093.07 482.053C1088.83 475.357 1080.43 473.201 1073.4 476.925C1071.77 477.782 1070.41 478.934 1069.33 480.281C1067.99 481.947 1067.07 483.907 1066.58 485.981C1065.7 489.688 1066.2 493.763 1068.14 497.152C1071.99 503.881 1080.44 505.694 1087.18 502.64C1092.77 500.1 1095.39 494.229 1094.98 488.496C1094.85 486.642 1094.39 484.797 1093.62 483.09C1093.56 482.91 1093.48 482.739 1093.38 482.559ZM1084.66 497.071C1081.04 499.218 1076.15 497.92 1073.74 494.588C1070.95 490.725 1072.01 485.287 1075.86 482.576C1080.08 479.611 1085.64 481.392 1088.11 485.646C1090.22 489.884 1088.65 494.694 1084.66 497.071Z" fill="white"/>
<path d="M1150.73 445.477C1150.52 437.809 1144.06 432.011 1136.68 431.562C1136.52 431.537 1136.36 431.529 1136.18 431.529C1136 431.529 1135.84 431.537 1135.68 431.554C1128.02 432.011 1122.27 437.809 1121.62 445.477C1121.35 448.841 1122.38 451.961 1124.25 454.492C1125.46 456.15 1127.02 457.546 1128.8 458.6C1131.38 460.135 1134.42 460.927 1137.47 460.666C1145.23 460.013 1150.94 453.161 1150.73 445.477ZM1137.3 454.574C1131.87 455.652 1127.59 450.474 1127.72 445.477C1127.86 441.01 1131.97 437.76 1136.18 437.645C1140.58 437.768 1144.26 441.018 1144.63 445.477C1145.02 450.107 1141.64 453.716 1137.3 454.574Z" fill="white"/>
<path d="M843.106 620.241V598.698H801.238V517.527H777.139V620.241H843.106Z" fill="white"/>
<path d="M857.908 538.661C864.914 538.661 870.704 534.349 870.704 527.081C870.704 519.952 864.914 515.371 857.908 515.371C850.909 515.371 845.12 519.952 845.12 527.081C845.12 534.349 850.909 538.661 857.908 538.661ZM869.218 620.241V543.912H846.606V620.241H869.218Z" fill="white"/>
<path d="M901.661 620.241V577.295C901.661 570.697 902.608 566.932 904.486 564.376C906.511 561.542 909.876 560.473 914.588 560.473C918.352 560.473 921.047 561.281 922.933 563.298C925.22 565.723 926.159 569.757 926.159 577.295V620.241H948.779V577.564C948.779 568.141 948.779 562.081 945.815 555.491C942.72 548.485 936.261 542.295 921.186 542.295C913.101 542.295 906.781 544.451 901.661 552.127V543.912H879.049V620.241H901.661Z" fill="white"/>
<path d="M980.682 620.241V583.624L1007.61 620.241H1034.53L1001.42 576.756L1032.78 543.912H1004.92L980.682 570.697V517.527H958.069V620.241H980.682Z" fill="white"/>
<path d="M1048.39 538.661C1055.4 538.661 1061.19 534.349 1061.19 527.081C1061.19 519.952 1055.4 515.371 1048.39 515.371C1041.39 515.371 1035.6 519.952 1035.6 527.081C1035.6 534.349 1041.39 538.661 1048.39 538.661ZM1059.7 620.241V543.912H1037.09V620.241H1059.7Z" fill="white"/>
<path d="M1111.13 620.241V601.932H1102.65C1098.74 601.932 1098.07 599.507 1098.07 597.359V561.542H1111.26V543.912H1098.07V517.527H1075.45V543.912H1064.95V561.542H1075.45V605.027C1075.45 614.72 1081.91 620.241 1093.09 620.241H1111.13Z" fill="white"/>
</svg>

